<svg width="344" height="132" viewBox="0 0 344 132" fill="none" xmlns="http://www.w3.org/2000/svg">
<g filter="url(#filter0_d_12_10)">
<rect x="4" y="12" width="336" height="108" rx="54" fill="#434343" fill-opacity="0.81"/>
<g filter="url(#filter1_d_12_10)">
<path d="M30.84 100L40.824 28.48H87.384L85.944 38.56H50.712L47.64 60.064H79.128L77.688 70.144H46.296L42.072 100H30.84ZM85.9403 100L93.1403 48.064H104.084L96.7883 100H85.9403ZM94.1963 40.96L95.9243 28.48H106.772L105.044 40.96H94.1963ZM132.413 100.576C126.845 100.576 122.717 99.008 120.029 95.872C117.405 92.672 116.477 88.288 117.245 82.72L120.701 57.856H111.485L112.925 48.064H114.077C116.509 48.064 118.557 47.328 120.221 45.856C121.885 44.32 122.877 42.336 123.197 39.904L123.773 36.16H134.717L132.989 48.064H144.701L143.261 57.856H131.645L128.093 82.816C127.837 84.608 127.869 86.112 128.189 87.328C128.573 88.544 129.309 89.472 130.397 90.112C131.485 90.688 133.021 90.976 135.005 90.976C135.645 90.976 136.253 90.944 136.829 90.88C137.469 90.816 138.141 90.752 138.845 90.688L137.981 100.096C137.149 100.288 136.189 100.416 135.101 100.48C134.077 100.544 133.181 100.576 132.413 100.576ZM149.809 100L159.793 28.48H184.657C189.137 28.48 193.041 29.312 196.369 30.976C199.697 32.64 202.289 35.072 204.145 38.272C206.001 41.408 206.929 45.216 206.929 49.696C206.929 53.152 206.257 56.352 204.913 59.296C203.633 62.24 201.777 64.768 199.345 66.88C196.977 68.928 194.129 70.496 190.801 71.584L203.089 100H190.897L177.553 68.512L184.465 73.12H164.785L161.041 100H149.809ZM166.225 63.04H181.297C184.113 63.04 186.577 62.464 188.689 61.312C190.865 60.096 192.561 58.496 193.777 56.512C194.993 54.464 195.601 52.16 195.601 49.6C195.601 46.144 194.545 43.456 192.433 41.536C190.321 39.552 187.473 38.56 183.889 38.56H169.681L166.225 63.04ZM237.218 101.152C232.226 101.152 227.842 100.064 224.066 97.888C220.354 95.648 217.442 92.608 215.33 88.768C213.282 84.928 212.258 80.608 212.258 75.808C212.258 71.84 212.93 68.128 214.273 64.672C215.682 61.152 217.602 58.08 220.034 55.456C222.53 52.768 225.41 50.688 228.674 49.216C232.002 47.68 235.618 46.912 239.522 46.912C244.578 46.912 248.834 47.968 252.29 50.08C255.81 52.192 258.466 55.04 260.258 58.624C262.05 62.144 262.946 66.016 262.946 70.24C262.946 71.328 262.85 72.48 262.658 73.696C262.466 74.912 262.274 76.064 262.082 77.152H220.609L221.282 68.512H256.514L251.042 72.256C251.938 69.248 251.97 66.528 251.138 64.096C250.306 61.6 248.866 59.648 246.818 58.24C244.77 56.768 242.306 56.032 239.426 56.032C235.778 56.032 232.77 56.96 230.402 58.816C228.034 60.608 226.274 63.072 225.122 66.208C223.97 69.344 223.394 72.928 223.394 76.96C223.394 79.968 224.002 82.592 225.218 84.832C226.434 87.008 228.098 88.672 230.21 89.824C232.322 90.976 234.722 91.552 237.41 91.552C240.61 91.552 243.362 90.816 245.666 89.344C248.034 87.872 249.954 86.016 251.426 83.776L260.066 88.48C258.85 90.912 257.09 93.088 254.786 95.008C252.546 96.928 249.922 98.432 246.914 99.52C243.906 100.608 240.674 101.152 237.218 101.152ZM263.47 100L285.551 73.6L271.343 48.064H283.343L295.055 69.472L289.295 69.28L306.767 48.064H320.111L298.223 74.08L312.623 100H300.719L289.007 78.496L293.999 78.688L276.623 100H263.47Z" fill="#D1B6F2"/>
</g>
</g>
<defs>
<filter id="filter0_d_12_10" x="0" y="12" width="344" height="116" filterUnits="userSpaceOnUse" color-interpolation-filters="sRGB">
<feFlood flood-opacity="0" result="BackgroundImageFix"/>
<feColorMatrix in="SourceAlpha" type="matrix" values="0 0 0 0 0 0 0 0 0 0 0 0 0 0 0 0 0 0 127 0" result="hardAlpha"/>
<feOffset dy="4"/>
<feGaussianBlur stdDeviation="2"/>
<feComposite in2="hardAlpha" operator="out"/>
<feColorMatrix type="matrix" values="0 0 0 0 0 0 0 0 0 0 0 0 0 0 0 0 0 0 0.25 0"/>
<feBlend mode="normal" in2="BackgroundImageFix" result="effect1_dropShadow_12_10"/>
<feBlend mode="normal" in="SourceGraphic" in2="effect1_dropShadow_12_10" result="shape"/>
</filter>
<filter id="filter1_d_12_10" x="26.84" y="28.48" width="297.27" height="80.672" filterUnits="userSpaceOnUse" color-interpolation-filters="sRGB">
<feFlood flood-opacity="0" result="BackgroundImageFix"/>
<feColorMatrix in="SourceAlpha" type="matrix" values="0 0 0 0 0 0 0 0 0 0 0 0 0 0 0 0 0 0 127 0" result="hardAlpha"/>
<feOffset dy="4"/>
<feGaussianBlur stdDeviation="2"/>
<feComposite in2="hardAlpha" operator="out"/>
<feColorMatrix type="matrix" values="0 0 0 0 0 0 0 0 0 0 0 0 0 0 0 0 0 0 0.25 0"/>
<feBlend mode="normal" in2="BackgroundImageFix" result="effect1_dropShadow_12_10"/>
<feBlend mode="normal" in="SourceGraphic" in2="effect1_dropShadow_12_10" result="shape"/>
</filter>
</defs>
</svg>
